# xmcd
#
# Track frame offsets:
#	150
#	11476
#	22943
#	32965
#	50786
#	62666
#	74405
#	86897
#	98176
#	111193
#
# Disc length: 1613
#
# Revision: 1
# Processed by: cddbd v1.5.1PL0 Copyright (c) Steve Scherf et al.
# Submitted via: dBpowerAMP V4.0
# Normalized: r0:TRMNUM
#
DISCID=86064b0a
DTITLE=John Lee Hooker - The Best of
DYEAR=1900
DGENRE=Blues
TTITLE0=Boom Boom
TTITLE1=Boogie Chillun
TTITLE2=Dimples
TTITLE3=House Rent Boogie
TTITLE4=Crawlin' Kingsnake
TTITLE5=Whiskey and Women
TTITLE6=Hobo Blues
TTITLE7=Will the Circle be Unbroken
TTITLE8=Unfriendly Woman
TTITLE9=Want Ad Blues
EXTD=
EXTT0=
EXTT1=
EXTT2=
EXTT3=
EXTT4=
EXTT5=
EXTT6=
EXTT7=
EXTT8=
EXTT9=
PLAYORDER=
